<svg xmlns="http://www.w3.org/2000/svg" viewBox="0 0 1200 760" width="1200" height="760" font-family="-apple-system, 'Helvetica Neue', Helvetica, Arial, sans-serif">
  <rect width="1200" height="760" fill="#ffffff"/>
  <rect x="40" y="40" width="1120" height="680" rx="16" fill="#ffffff"/>
  <path d="M56 40 h1088 a16 16 0 0 1 16 16 v28 h-1120 v-28 a16 16 0 0 1 16 -16 z" fill="#f4f4f5"/>
  <path d="M40 84 h260 v636 h-244 a16 16 0 0 1 -16 -16 z" fill="#fafafa"/>
  <rect x="40" y="40" width="1120" height="680" rx="16" fill="none" stroke="#e4e4e7"/>
  <line x1="40" y1="84" x2="1160" y2="84" stroke="#e4e4e7"/>
  <line x1="300" y1="84" x2="300" y2="720" stroke="#e4e4e7"/>
  <circle cx="76" cy="62" r="7" fill="#ff5f57"/>
  <circle cx="98" cy="62" r="7" fill="#febc2e"/>
  <circle cx="120" cy="62" r="7" fill="#28c840"/>
  <rect x="420" y="48" width="360" height="28" rx="14" fill="#e4e4e7"/>
  <text x="600" y="67" text-anchor="middle" fill="#71717a" font-size="14">doubao.com</text>

  <text x="76" y="140" fill="#3f3f46" font-size="15">+   新对话</text>
  <text x="76" y="180" fill="#3f3f46" font-size="15">AI 搜索</text>
  <text x="76" y="220" fill="#3f3f46" font-size="15">图像生成</text>
  <text x="76" y="260" fill="#3f3f46" font-size="15">帮我写作</text>
  <text x="76" y="300" fill="#3f3f46" font-size="15">视频生成</text>
  <text x="76" y="352" fill="#a1a1aa" font-size="12">历史对话</text>
  <text x="76" y="388" fill="#3f3f46" font-size="14">帮我改一下简历</text>
  <text x="76" y="422" fill="#3f3f46" font-size="14">英语口语陪练</text>
  <text x="76" y="456" fill="#3f3f46" font-size="14">周末去哪儿玩</text>
  <circle cx="76" cy="676" r="14" fill="#e4e4e7"/>
  <text x="76" y="681" text-anchor="middle" fill="#3f3f46" font-size="13">豆</text>
  <text x="100" y="682" fill="#71717a" font-size="14">我的</text>

  <text x="730" y="270" text-anchor="middle" fill="#18181b" font-size="24">嗨，我是豆包，随时都可以问我</text>

  <rect x="360" y="330" width="740" height="130" rx="24" fill="#ffffff" stroke="#e4e4e7"/>
  <text x="392" y="374" fill="#18181b" font-size="16">帮我把这段工作总结润色得更正式</text>
  <line x1="384" y1="398" x2="1076" y2="398" stroke="#e4e4e7"/>

  <rect x="384" y="414" width="110" height="34" rx="17" fill="#f4f4f5" stroke="#e4e4e7"/>
  <text x="404" y="436" fill="#3f3f46" font-size="13">深度思考</text>
  <rect x="506" y="414" width="110" height="34" rx="17" fill="#f4f4f5" stroke="#e4e4e7"/>
  <text x="526" y="436" fill="#3f3f46" font-size="13">联网搜索</text>

  <circle cx="962" cy="431" r="15" fill="#f4f4f5" stroke="#e4e4e7"/>
  <path d="M958 436 l7 -7 a4 4 0 0 1 6 6 l-9 9 a7 7 0 0 1 -10 -10 l10 -10" fill="none" stroke="#71717a" stroke-width="2"/>
  <circle cx="1006" cy="431" r="15" fill="#f4f4f5" stroke="#e4e4e7"/>
  <rect x="1003" y="424" width="6" height="12" rx="3" fill="#71717a"/>
  <path d="M999 434 a7 7 0 0 0 14 0" fill="none" stroke="#71717a" stroke-width="2"/>
  <circle cx="1054" cy="431" r="18" fill="#18181b"/>
  <path d="M1054 439 v-14 m-6 6 l6 -6 6 6" fill="none" stroke="#ffffff" stroke-width="2"/>

  <text x="380" y="500" fill="#a1a1aa" font-size="13">左侧是功能区和历史对话，输入框下方的「深度思考」「联网搜索」按需打开，麦克风图标进入语音通话。</text>

  <text x="1180" y="740" text-anchor="end" fill="#a1a1aa" font-size="13">示意图</text>
</svg>
