<svg xmlns="http://www.w3.org/2000/svg" viewBox="0 0 1200 760" width="1200" height="760" font-family="-apple-system, 'Helvetica Neue', Helvetica, Arial, sans-serif">
  <rect width="1200" height="760" fill="#ffffff"/>

  <defs>
    <linearGradient id="jvA" x1="0" y1="0" x2="0" y2="1">
      <stop offset="0" stop-color="#93c5fd"/><stop offset="1" stop-color="#6366f1"/>
    </linearGradient>
  </defs>

  <rect x="120" y="70" width="960" height="620" rx="16" fill="#ffffff"/>
  <path d="M136 70 h928 a16 16 0 0 1 16 16 v28 h-960 v-28 a16 16 0 0 1 16 -16 z" fill="#f4f4f5"/>
  <line x1="120" y1="114" x2="1080" y2="114" stroke="#e4e4e7" stroke-width="1"/>
  <rect x="120" y="70" width="960" height="620" rx="16" fill="none" stroke="#e4e4e7" stroke-width="2"/>
  <circle cx="156" cy="92" r="7" fill="#ff5f57"/>
  <circle cx="178" cy="92" r="7" fill="#febc2e"/>
  <circle cx="200" cy="92" r="7" fill="#28c840"/>
  <rect x="390" y="78" width="420" height="28" rx="14" fill="#e4e4e7"/>
  <text x="600" y="97" text-anchor="middle" fill="#71717a" font-size="14">jimeng.jianying.com &#183; 视频生成</text>

  <rect x="140" y="130" width="150" height="540" rx="12" fill="#f4f4f5"/>
  <text x="164" y="170" fill="#18181b" font-size="16" font-weight="700">即梦 AI</text>
  <text x="168" y="214" fill="#3f3f46" font-size="14">图片生成</text>
  <rect x="150" y="234" width="130" height="36" rx="8" fill="#e0f2fe"/>
  <text x="168" y="258" fill="#0369a1" font-size="14" font-weight="600">视频生成</text>
  <text x="168" y="306" fill="#3f3f46" font-size="14">智能画布</text>
  <text x="168" y="348" fill="#3f3f46" font-size="14">数字人</text>
  <text x="168" y="390" fill="#3f3f46" font-size="14">我的作品</text>
  <text x="166" y="614" fill="#71717a" font-size="13">积分 80</text>

  <rect x="310" y="150" width="380" height="230" rx="12" fill="#f4f4f5" stroke="#e4e4e7" stroke-width="2"/>
  <text x="500" y="252" text-anchor="middle" fill="#71717a" font-size="16">＋ 上传首帧图片</text>
  <text x="500" y="280" text-anchor="middle" fill="#a1a1aa" font-size="13">或用“文生图”结果一键带过来</text>

  <rect x="310" y="400" width="380" height="230" rx="12" fill="#18181b"/>
  <circle cx="500" cy="500" r="34" fill="#ffffff" opacity="0.9"/>
  <path d="M490 484 l30 16 l-30 16 z" fill="#18181b"/>
  <rect x="330" y="600" width="340" height="8" rx="4" fill="#3f3f46"/>
  <rect x="330" y="600" width="120" height="8" rx="4" fill="#38bdf8"/>
  <text x="330" y="586" fill="#a1a1aa" font-size="12">预览</text>

  <rect x="710" y="150" width="345" height="150" rx="12" fill="#ffffff" stroke="#e4e4e7" stroke-width="2"/>
  <text x="732" y="184" fill="#18181b" font-size="14" font-weight="600">运镜与动作描述</text>
  <text x="732" y="220" fill="#52525b" font-size="14">镜头缓慢推近，女孩的头发</text>
  <text x="732" y="248" fill="#52525b" font-size="14">被风轻轻吹动，光线渐变</text>

  <text x="732" y="340" fill="#3f3f46" font-size="13">时长</text>
  <rect x="790" y="322" width="66" height="30" rx="8" fill="#e0f2fe"/>
  <text x="823" y="342" text-anchor="middle" fill="#0369a1" font-size="13">5s</text>
  <rect x="864" y="322" width="66" height="30" rx="8" fill="#f4f4f5"/>
  <text x="897" y="342" text-anchor="middle" fill="#3f3f46" font-size="13">10s</text>

  <text x="732" y="392" fill="#3f3f46" font-size="13">比例</text>
  <rect x="790" y="374" width="120" height="30" rx="8" fill="#f4f4f5"/>
  <text x="850" y="394" text-anchor="middle" fill="#3f3f46" font-size="13">16:9</text>
  <rect x="920" y="374" width="120" height="30" rx="8" fill="#f4f4f5"/>
  <text x="980" y="394" text-anchor="middle" fill="#3f3f46" font-size="13">9:16</text>

  <text x="732" y="444" fill="#3f3f46" font-size="13">运镜</text>
  <rect x="790" y="426" width="80" height="30" rx="8" fill="#e0f2fe"/>
  <text x="830" y="446" text-anchor="middle" fill="#0369a1" font-size="13">推近</text>
  <rect x="878" y="426" width="80" height="30" rx="8" fill="#f4f4f5"/>
  <text x="918" y="446" text-anchor="middle" fill="#3f3f46" font-size="13">拉远</text>
  <rect x="966" y="426" width="80" height="30" rx="8" fill="#f4f4f5"/>
  <text x="1006" y="446" text-anchor="middle" fill="#3f3f46" font-size="13">环绕</text>

  <rect x="710" y="520" width="345" height="52" rx="10" fill="#18181b"/>
  <text x="882" y="552" text-anchor="middle" fill="#ffffff" font-size="16" font-weight="600">生成视频</text>

  <text x="710" y="610" fill="#a1a1aa" font-size="13">积分不足时可开通会员或次日登录领取</text>

  <text x="1180" y="740" text-anchor="end" fill="#a1a1aa" font-size="13">示意图</text>
</svg>
