<svg xmlns="http://www.w3.org/2000/svg" viewBox="0 0 1200 760" width="1200" height="760" font-family="-apple-system, 'Helvetica Neue', Helvetica, Arial, sans-serif">
  <rect width="1200" height="760" fill="#ffffff"/>

  <rect x="120" y="70" width="960" height="620" rx="16" fill="#ffffff"/>
  <path d="M136 70 h928 a16 16 0 0 1 16 16 v28 h-960 v-28 a16 16 0 0 1 16 -16 z" fill="#f4f4f5"/>
  <line x1="120" y1="114" x2="1080" y2="114" stroke="#e4e4e7" stroke-width="1"/>
  <rect x="120" y="70" width="960" height="620" rx="16" fill="none" stroke="#e4e4e7" stroke-width="2"/>
  <circle cx="156" cy="92" r="7" fill="#ff5f57"/>
  <circle cx="178" cy="92" r="7" fill="#febc2e"/>
  <circle cx="200" cy="92" r="7" fill="#28c840"/>

  <rect x="400" y="78" width="400" height="28" rx="14" fill="#e4e4e7"/>
  <text x="600" y="97" text-anchor="middle" fill="#71717a" font-size="14">format.ts — my-project — VS Code</text>

  <rect x="120" y="114" width="56" height="576" fill="#fafafa"/>
  <line x1="176" y1="114" x2="176" y2="690" stroke="#e4e4e7" stroke-width="1"/>
  <rect x="134" y="150" width="28" height="28" rx="6" fill="#e4e4e7"/>
  <rect x="134" y="196" width="28" height="28" rx="6" fill="#e4e4e7"/>

  <text x="196" y="166" font-size="13" fill="#a1a1aa">src/utils/format.ts</text>

  <text x="196" y="218" font-family="'SF Mono', Menlo, Consolas, monospace" font-size="14" fill="#c4c4c8">28</text>
  <text x="240" y="218" font-family="'SF Mono', Menlo, Consolas, monospace" font-size="14" fill="#18181b">export function formatPrice(cents: number) {</text>

  <text x="196" y="250" font-family="'SF Mono', Menlo, Consolas, monospace" font-size="14" fill="#c4c4c8">29</text>
  <text x="240" y="250" font-family="'SF Mono', Menlo, Consolas, monospace" font-size="14" fill="#a1a1aa" font-style="italic">  return new Intl.NumberFormat("en-US", {</text>

  <text x="196" y="282" font-family="'SF Mono', Menlo, Consolas, monospace" font-size="14" fill="#c4c4c8">30</text>
  <text x="240" y="282" font-family="'SF Mono', Menlo, Consolas, monospace" font-size="14" fill="#a1a1aa" font-style="italic">    style: "currency", currency: "USD",</text>

  <text x="196" y="314" font-family="'SF Mono', Menlo, Consolas, monospace" font-size="14" fill="#c4c4c8">31</text>
  <text x="240" y="314" font-family="'SF Mono', Menlo, Consolas, monospace" font-size="14" fill="#a1a1aa" font-style="italic">  }).format(cents / 100);</text>

  <text x="196" y="346" font-family="'SF Mono', Menlo, Consolas, monospace" font-size="14" fill="#c4c4c8">32</text>
  <text x="240" y="346" font-family="'SF Mono', Menlo, Consolas, monospace" font-size="14" fill="#18181b">}</text>

  <rect x="240" y="392" width="60" height="28" rx="6" fill="#f4f4f5" stroke="#e4e4e7" stroke-width="1"/>
  <text x="270" y="411" text-anchor="middle" font-size="12" fill="#18181b">Tab</text>
  <text x="314" y="411" font-size="13" fill="#71717a">accept suggestion</text>

  <rect x="480" y="392" width="74" height="28" rx="6" fill="#f4f4f5" stroke="#e4e4e7" stroke-width="1"/>
  <text x="517" y="411" text-anchor="middle" font-size="12" fill="#18181b">Alt+]</text>
  <text x="568" y="411" font-size="13" fill="#71717a">next suggestion</text>


  <text x="240" y="470" font-size="13" fill="#a1a1aa">Grey italic text is Copilot's inline suggestion. It is not written to disk until you press Tab.</text>
  <text x="240" y="500" font-size="13" fill="#a1a1aa">Write a comment first (for example: // format a price in USD) to steer what it proposes.</text>

  <text x="1180" y="740" text-anchor="end" fill="#a1a1aa" font-size="13">示意图</text>
</svg>
