<svg xmlns="http://www.w3.org/2000/svg" viewBox="0 0 1200 760" width="1200" height="760" font-family="-apple-system, 'Helvetica Neue', Helvetica, Arial, sans-serif">
  <rect width="1200" height="760" fill="#ffffff"/>
  <rect x="40" y="40" width="1120" height="680" rx="16" fill="#ffffff"/>
  <path d="M56 40 h1088 a16 16 0 0 1 16 16 v28 h-1120 v-28 a16 16 0 0 1 16 -16 z" fill="#f4f4f5"/>
  <path d="M40 84 h260 v636 h-244 a16 16 0 0 1 -16 -16 z" fill="#fafafa"/>
  <rect x="40" y="40" width="1120" height="680" rx="16" fill="none" stroke="#e4e4e7"/>
  <line x1="40" y1="84" x2="1160" y2="84" stroke="#e4e4e7"/>
  <line x1="300" y1="84" x2="300" y2="720" stroke="#e4e4e7"/>
  <circle cx="76" cy="62" r="7" fill="#ff5f57"/>
  <circle cx="98" cy="62" r="7" fill="#febc2e"/>
  <circle cx="120" cy="62" r="7" fill="#28c840"/>
  <rect x="420" y="48" width="360" height="28" rx="14" fill="#e4e4e7"/>
  <text x="600" y="67" text-anchor="middle" fill="#71717a" font-size="14">grok.com</text>

  <text x="76" y="140" fill="#3f3f46" font-size="15">+   New chat</text>
  <text x="76" y="180" fill="#3f3f46" font-size="15">Imagine</text>
  <text x="76" y="220" fill="#3f3f46" font-size="15">Tasks</text>
  <text x="76" y="260" fill="#3f3f46" font-size="15">Projects</text>
  <text x="76" y="312" fill="#a1a1aa" font-size="12">Chats</text>
  <text x="76" y="348" fill="#3f3f46" font-size="14">AI news this week</text>
  <text x="76" y="382" fill="#3f3f46" font-size="14">Compare React and Vue</text>
  <text x="76" y="416" fill="#3f3f46" font-size="14">Summarize this thread</text>
  <text x="76" y="450" fill="#3f3f46" font-size="14">Draft a launch post</text>
  <circle cx="76" cy="676" r="14" fill="#e4e4e7"/>
  <text x="76" y="681" text-anchor="middle" fill="#3f3f46" font-size="13">G</text>
  <text x="100" y="682" fill="#71717a" font-size="14">Free plan</text>

  <rect x="640" y="108" width="150" height="34" rx="17" fill="#ffffff" stroke="#e4e4e7"/>
  <text x="662" y="131" fill="#18181b" font-size="15">Grok 4</text>
  <path d="M766 126 l6 6 6 -6" fill="none" stroke="#71717a" stroke-width="2"/>

  <text x="730" y="330" text-anchor="middle" fill="#18181b" font-size="26">Ask Grok anything</text>

  <rect x="360" y="380" width="740" height="88" rx="24" fill="#ffffff" stroke="#e4e4e7"/>
  <text x="404" y="418" fill="#a1a1aa" font-size="16">Ask anything</text>
  <rect x="384" y="424" width="100" height="34" rx="17" fill="#f4f4f5" stroke="#e4e4e7"/>
  <text x="406" y="446" fill="#3f3f46" font-size="13">Think</text>
  <rect x="496" y="424" width="140" height="34" rx="17" fill="#f4f4f5" stroke="#e4e4e7"/>
  <text x="518" y="446" fill="#3f3f46" font-size="13">DeepSearch</text>
  <circle cx="1006" cy="442" r="14" fill="#f4f4f5" stroke="#e4e4e7"/>
  <path d="M1000 448 h12" stroke="#71717a" stroke-width="2"/>
  <path d="M1006 436 v8" stroke="#71717a" stroke-width="2"/>
  <circle cx="1060" cy="442" r="18" fill="#18181b"/>
  <path d="M1060 450 v-14 m-6 6 l6 -6 6 6" fill="none" stroke="#ffffff" stroke-width="2"/>

  <text x="380" y="512" fill="#a1a1aa" font-size="13">Think = reason before answering. DeepSearch = browse the web and cite sources.</text>

  <text x="1180" y="740" text-anchor="end" fill="#a1a1aa" font-size="13">示意图</text>
</svg>
