<svg xmlns="http://www.w3.org/2000/svg" viewBox="0 0 1200 760" width="1200" height="760" font-family="-apple-system, 'Helvetica Neue', Helvetica, Arial, sans-serif">
  <rect width="1200" height="760" fill="#ffffff"/>

  <rect x="120" y="70" width="960" height="620" rx="16" fill="#ffffff"/>
  <path d="M136 70 h928 a16 16 0 0 1 16 16 v28 h-960 v-28 a16 16 0 0 1 16 -16 z" fill="#f4f4f5"/>
  <line x1="120" y1="114" x2="1080" y2="114" stroke="#e4e4e7" stroke-width="1"/>
  <rect x="120" y="70" width="960" height="620" rx="16" fill="none" stroke="#e4e4e7" stroke-width="2"/>
  <circle cx="156" cy="92" r="7" fill="#ff5f57"/>
  <circle cx="178" cy="92" r="7" fill="#febc2e"/>
  <circle cx="200" cy="92" r="7" fill="#28c840"/>

  <rect x="380" y="78" width="440" height="28" rx="14" fill="#e4e4e7"/>
  <text x="600" y="97" text-anchor="middle" fill="#71717a" font-size="14">my-project — Cursor</text>

  <text x="160" y="166" font-family="'SF Mono', Menlo, Consolas, monospace" font-size="14" fill="#a1a1aa">src/app/page.tsx</text>
  <text x="160" y="214" font-family="'SF Mono', Menlo, Consolas, monospace" font-size="14" fill="#18181b">function Hero() {</text>
  <text x="160" y="246" font-family="'SF Mono', Menlo, Consolas, monospace" font-size="14" fill="#18181b">  return (</text>
  <text x="160" y="278" font-family="'SF Mono', Menlo, Consolas, monospace" font-size="14" fill="#18181b">    &lt;section className="hero"&gt;</text>
  <text x="160" y="310" font-family="'SF Mono', Menlo, Consolas, monospace" font-size="14" fill="#18181b">      &lt;h1&gt;{title}&lt;/h1&gt;</text>
  <text x="160" y="342" font-family="'SF Mono', Menlo, Consolas, monospace" font-size="14" fill="#18181b">      &lt;p&gt;{subtitle}&lt;/p&gt;</text>
  <text x="160" y="374" font-family="'SF Mono', Menlo, Consolas, monospace" font-size="14" fill="#18181b">    &lt;/section&gt;</text>
  <text x="160" y="406" font-family="'SF Mono', Menlo, Consolas, monospace" font-size="14" fill="#18181b">  );</text>
  <text x="160" y="438" font-family="'SF Mono', Menlo, Consolas, monospace" font-size="14" fill="#18181b">}</text>

  <line x1="664" y1="130" x2="664" y2="674" stroke="#e4e4e7" stroke-width="1"/>

  <text x="688" y="166" font-size="15" font-weight="600" fill="#18181b">Agent</text>
  <rect x="756" y="146" width="70" height="26" rx="13" fill="#f4f4f5" stroke="#e4e4e7" stroke-width="1"/>
  <text x="791" y="164" text-anchor="middle" font-size="12" fill="#71717a">Plan</text>
  <rect x="834" y="146" width="72" height="26" rx="13" fill="#18181b"/>
  <text x="870" y="164" text-anchor="middle" font-size="12" fill="#ffffff">Agent</text>

  <rect x="688" y="192" width="336" height="66" rx="12" fill="#f4f4f5"/>
  <text x="706" y="220" font-size="13" fill="#18181b">Make the hero responsive and add a</text>
  <text x="706" y="242" font-size="13" fill="#18181b">dark-mode variant.</text>

  <text x="688" y="294" font-family="'SF Mono', Menlo, Consolas, monospace" font-size="12" fill="#71717a">Read src/app/page.tsx</text>
  <text x="688" y="318" font-family="'SF Mono', Menlo, Consolas, monospace" font-size="12" fill="#71717a">Edit src/app/page.tsx</text>
  <text x="688" y="342" font-family="'SF Mono', Menlo, Consolas, monospace" font-size="12" fill="#71717a">Run pnpm lint</text>

  <text x="688" y="386" font-size="13" fill="#18181b">Updated the hero with Tailwind</text>
  <text x="688" y="408" font-size="13" fill="#18181b">breakpoints and a dark: variant.</text>

  <text x="688" y="446" font-size="12" fill="#71717a">+3 −1 · src/app/page.tsx</text>
  <rect x="688" y="458" width="120" height="34" rx="8" fill="#18181b"/>
  <text x="748" y="480" text-anchor="middle" font-size="13" fill="#ffffff">Accept all</text>
  <rect x="820" y="458" width="120" height="34" rx="8" fill="#ffffff" stroke="#e4e4e7" stroke-width="2"/>
  <text x="880" y="480" text-anchor="middle" font-size="13" fill="#18181b">Review</text>

  <rect x="688" y="548" width="336" height="60" rx="12" fill="#ffffff" stroke="#e4e4e7" stroke-width="2"/>
  <text x="706" y="582" font-size="13" fill="#a1a1aa">Describe a task, or press ⌘L…</text>
  <text x="688" y="638" font-size="12" fill="#71717a">sonnet · auto · 3 files in context</text>

  <text x="1180" y="740" text-anchor="end" fill="#a1a1aa" font-size="13">示意图</text>
</svg>
